<?xml version="1.0" standalone="no"?>
<!DOCTYPE svg PUBLIC "-//W3C//DTD SVG 20010904//EN"
 "http://www.w3.org/TR/2001/REC-SVG-20010904/DTD/svg10.dtd">
<svg version="1.0" xmlns="http://www.w3.org/2000/svg"
 width="234.000000pt" height="116.000000pt" viewBox="0 0 234.000000 116.000000"
 preserveAspectRatio="xMidYMid meet">

<g transform="translate(0.000000,116.000000) scale(0.100000,-0.100000)"
fill="#000000" stroke="none">
<path d="M0 580 l0 -580 1170 0 1170 0 0 580 0 580 -1170 0 -1170 0 0 -580z
m1056 553 c13 -17 13 -17 14 0 0 22 70 25 70 2 0 -11 21 -15 108 -17 l107 -3
0 -135 0 -135 -190 0 -190 0 -3 133 c-2 127 -2 134 18 139 11 3 20 12 20 19 0
20 30 17 46 -3z m-156 -298 l0 -25 -395 0 -395 0 0 25 0 25 395 0 395 0 0 -25z
m1320 0 l0 -25 -395 0 -395 0 0 25 0 25 395 0 395 0 0 -25z m-1925 -325 c13
-15 15 -24 8 -31 -8 -8 -14 -5 -23 11 -7 14 -19 20 -33 18 -20 -3 -22 -9 -22
-68 0 -59 2 -65 22 -68 14 -2 26 4 33 17 12 23 30 28 30 9 0 -37 -70 -64 -98
-36 -16 16 -16 140 0 156 19 19 63 14 83 -8z m75 -5 c0 -19 5 -25 23 -25 35 0
47 -19 47 -77 0 -69 -18 -69 -22 0 -3 44 -6 52 -23 52 -17 0 -21 -8 -25 -49
-3 -27 -11 -51 -17 -54 -10 -3 -13 18 -13 81 0 46 3 87 7 90 13 14 23 6 23
-18z m420 -50 c0 -61 3 -77 16 -82 10 -4 22 1 30 12 17 23 33 11 18 -13 -14
-21 -50 -27 -70 -12 -17 15 -21 170 -4 170 6 0 10 -32 10 -75z m630 56 c5 -11
10 -24 10 -30 0 -19 -18 -12 -25 9 -8 24 -50 27 -59 4 -3 -9 -6 -33 -6 -54 0
-21 3 -45 6 -54 9 -23 51 -20 59 4 7 23 25 27 25 6 0 -22 -29 -46 -55 -46 -39
0 -55 25 -55 86 0 74 12 94 55 94 24 0 38 -6 45 -19z m352 -3 c2 -17 11 -24
31 -26 37 -4 35 -22 -3 -22 -28 0 -30 -2 -30 -40 0 -47 24 -65 46 -35 17 23
33 11 18 -13 -14 -21 -57 -27 -71 -10 -10 12 -17 80 -14 141 1 33 18 36 23 5z
m148 13 c0 -14 -18 -23 -30 -16 -6 4 -8 11 -5 16 8 12 35 12 35 0z m-1352 -53
c14 -14 16 -118 2 -118 -5 0 -10 14 -10 31 0 24 -3 30 -16 25 -9 -3 -20 -6
-25 -6 -5 0 -9 -7 -9 -15 0 -8 9 -15 20 -15 11 0 20 -4 20 -10 0 -18 -49 -11
-59 9 -13 23 3 46 42 61 16 5 25 14 22 20 -10 16 -33 12 -44 -7 -12 -23 -25
-11 -16 16 7 24 53 29 73 9z m146 -10 c15 -24 -1 -36 -18 -13 -24 33 -46 12
-46 -45 0 -27 -4 -50 -10 -50 -11 0 -14 113 -3 124 13 12 66 2 77 -16z m274
10 c23 -23 13 -46 -23 -58 -38 -12 -45 -27 -19 -37 10 -4 22 1 30 12 17 23 33
11 18 -13 -14 -21 -50 -27 -70 -12 -17 15 -19 91 -2 108 7 7 21 12 33 12 12 0
26 -5 33 -12z m140 -6 c3 -9 -3 -11 -22 -6 -35 8 -34 -11 2 -28 31 -15 40 -49
18 -67 -19 -16 -56 -10 -70 11 -15 24 1 36 18 13 8 -11 20 -16 30 -12 24 9 20
26 -9 37 -28 11 -40 32 -31 56 7 18 57 16 64 -4z m420 6 c14 -14 16 -118 2
-118 -5 0 -10 14 -10 30 0 34 -7 37 -36 15 -19 -14 -19 -15 4 -21 31 -9 28
-26 -5 -22 -22 2 -29 9 -31 30 -3 23 2 30 33 42 20 9 34 20 30 26 -9 15 -35
12 -41 -5 -7 -18 -24 -20 -24 -2 0 19 21 37 45 37 12 0 26 -5 33 -12z m140 0
c14 -14 16 -118 3 -118 -6 0 -11 24 -13 53 -3 44 -6 52 -23 52 -17 0 -20 -8
-23 -52 -4 -69 -22 -69 -22 0 0 57 12 77 45 77 12 0 26 -5 33 -12z m222 -38
c0 -57 22 -78 46 -45 17 23 33 11 18 -13 -14 -21 -50 -27 -70 -12 -16 14 -20
120 -4 120 6 0 10 -23 10 -50z m211 23 c13 -34 8 -95 -8 -100 -8 -3 -13 13
-15 49 -3 45 -6 53 -23 53 -17 0 -20 -8 -23 -52 -4 -69 -22 -69 -22 0 0 60 12
77 52 77 22 0 31 -6 39 -27z m99 -388 l0 -25 -1055 0 -1055 0 0 25 0 25 1055
0 1055 0 0 -25z"/>
<path d="M1098 1123 c7 -3 16 -2 19 1 4 3 -2 6 -13 5 -11 0 -14 -3 -6 -6z"/>
<path d="M990 1081 c0 -16 6 -32 13 -34 10 -4 10 -6 0 -6 -10 -1 -13 -27 -13
-96 l0 -95 175 0 175 0 0 94 c0 66 -4 96 -12 99 -10 4 -10 6 0 6 7 1 12 14 12
31 l0 30 -175 0 -175 0 0 -29z m340 -1 c0 -5 -11 -10 -25 -10 -14 0 -25 5 -25
10 0 6 11 10 25 10 14 0 25 -4 25 -10z m-78 -20 c14 -10 27 -18 29 -15 2 2 5
-19 7 -46 3 -44 -1 -53 -27 -79 -47 -48 -117 -35 -146 26 -9 19 -21 33 -27 31
-6 -1 -13 4 -16 12 -3 10 0 12 10 8 10 -3 19 3 27 19 8 18 8 24 -2 24 -6 0 4
8 23 19 47 25 92 25 122 1z"/>
<path d="M1165 1059 c-77 -44 -51 -149 37 -149 41 0 78 36 78 76 0 51 -72 97
-115 73z m84 -36 c51 -63 -41 -141 -99 -83 -41 41 -13 110 45 110 24 0 39 -7
54 -27z"/>
<path d="M1168 1029 c-34 -19 -13 -99 25 -99 24 0 57 31 57 54 0 25 -28 56
-51 56 -8 0 -22 -5 -31 -11z"/>
<path d="M933 445 c-8 -21 -2 -24 25 -14 13 5 20 13 17 19 -9 15 -35 12 -42
-5z"/>
</g>
</svg>
